<svg xmlns="http://www.w3.org/2000/svg" width="48" height="48" viewBox="0 0 12.7 12.7"><path d="M5.84 10.133C4.7 10.03 3.447 9.526 2.423 8.76c-.372-.278-.89-.734-1.165-1.027C.813 7.26.336 6.658.186 6.383L.12 6.26l.158-.216c.716-.967 1.882-2.036 2.89-2.647 1.336-.81 2.646-1.116 3.938-.917.628.097 1.123.262 1.822.606.545.27.653.332 1.014.585.91.64 1.89 1.58 2.494 2.39.195.26.204.21-.098.63-.415.58-1.152 1.36-1.727 1.82-1.18.95-2.43 1.49-3.71 1.62-.29.03-.8.04-1.05.01zm1.517-.82c1.14-.238 2.194-.818 3.27-1.8.345-.314 1.067-1.13 1.067-1.204 0-.04-.474-.57-.798-.89-.626-.63-1.24-1.1-2.022-1.56-.41-.25-.792-.4-1.283-.53-.49-.13-.65-.16-1.05-.18-1.47-.08-3.1.67-4.61 2.14-.31.3-.72.74-.88.96-.03.04 0 .09.2.34.44.55 1.07 1.15 1.66 1.6.31.23 1.62.89 1.97.992.6.175.91.215 1.588.2.455-.008.618-.024.905-.083zM6 8.527c-.76-.137-1.44-.653-1.69-1.284-.14-.355-.16-.426-.192-.697-.08-.646.14-1.3.593-1.785.36-.37.75-.59 1.24-.69.57-.1 1.09 0 1.6.31.31.19.49.37.68.66.31.46.41.82.39 1.36-.02.39-.07.59-.22.91-.275.565-.836 1.024-1.44 1.18-.256.066-.723.09-.943.05z"/></svg>