<svg xmlns="http://www.w3.org/2000/svg" viewBox="0 0 12.7 12.7"><path d="M2.987 11.712c-1.073-.358-1.456-1.34-1.456-1.99 0-2.043 2.29-3 3.67-1.533.67.71 1.578.704 2.25-.01.704-.75 1.63-.93 2.496-.48 1.175.604 1.492 1.79.826 3.08-.414.8-1.117 1.08-2.45.942-.23-.057-1.185-.21-1.487-1.65-.163-.783-.91-.757-1.075.002-.27 1.227-1.704 2.074-2.768 1.634zm1.547-1.07c.816-.74.27-2.358-.798-2.358-1.115 0-1.692 1.46-.916 2.318.47.52 1.167.535 1.714.04zm5.25.092c.623-.49.827-1.298.31-1.956-.16-.353-.792-.494-1.006-.494-.68 0-1.402.673-1.402 1.305 0 1.16 1.227 1.83 2.1 1.14zM.098 6.664c.407-.408 3.21-1.1 5.072-1.256 2.45-.203 6.99.59 7.428 1.297.078.127-2.43.21-6.312.21-4.717 0-6.374-.067-6.19-.252zm2.927-3.216c.357-1.63.69-2.52 1.127-2.464 1.177.148 1.668.445 2.943.28 0 0 1.7-.407 1.917-.315l.368 1.26c.202.695.428 1.422.502 1.615.117.305-.318.35-3.44.35h-3.58z"/></svg>