<svg xmlns="http://www.w3.org/2000/svg" width="512" height="512"><path d="M91 420v-20h329v41H91zm-2-28a18783 18783 0 0 1-50-206l-6-2c-12-2-22-9-27-21-3-5-4-7-3-14 0-7 0-10 2-15 4-7 11-14 18-18 5-2 7-3 16-3 8 0 10 1 16 4 13 6 19 17 20 32 0 7-1 9-4 15l-8 11c-3 2-5 5-4 5 0 2 18 24 27 33 17 18 29 28 46 36 12 7 20 8 30 5 23-7 50-43 75-102l6-15-3-1c-6-2-15-11-18-18-4-9-4-19 0-28 3-8 10-16 18-19 5-3 7-3 15-3s11 0 15 2c12 6 19 15 21 28 1 7 0 15-4 22a41 41 0 0 1-20 17c0 2 12 29 19 42 17 35 34 58 50 68 10 7 16 9 26 8 14-1 37-15 57-36 14-14 33-37 33-39l-5-5-8-11c-3-6-3-8-3-15 0-15 7-26 20-32 6-3 7-4 16-4 8 0 10 1 16 3 7 4 14 11 18 18 2 5 2 8 2 15s0 9-3 14c-5 12-16 19-27 21l-7 2a5184 5184 0 0 0-49 206l-167 1-166-1z"/></svg>