<svg xmlns="http://www.w3.org/2000/svg" viewBox="0 0 79.250832 79.250832"><path d="M68 67.6c-.4-.5-1-4-1-8-.3-2.7-.3-3.6 0-5.6 1-4.8 1.4-6.5 1.3-6.8 0-.2-.4 1-.7 2.4-.4 1.6-.7 2.5-.7 2.2-.2-.3 0-2 .4-3.6.7-2.8 2.4-19.4 2-19l-1.7 2C64 36 58.5 41 50.5 47c-2 1.4-2.8 1.6-1.5.2.4-.4.6-.7.4-.7l-1 .6c-.2.5-.6.8-.8.8-.2 0-2.2 1.2-4.6 2.7-5 3.2-13.3 7.5-16.3 8.6-3 1.3-14 4.3-16 4.5h-2c-.2-.2.5-.4 2.6-1 1.7-.2 3.2-.6 3.4-.8.2-.2 1-.5 2-.8 2.4-.8 2-1-.6-.2-4 1-10.7 1.2-13.3.4-.8-.3-1.5-.7-1.5-1L.8 60l-.7-.4c0-.4 0-.4.8-.4.5 0 1.8 0 3 .4 3.6.7 6.2.4 12-1.2C30 54.4 47.5 43.6 59.6 31l3.5-3.7c0-.2-4 1.2-4 1.4-.2 0-.5.4-.8.5-.5.3-.5.4 0 .2 1.3-.2.3.3-1.6 1C51 32.4 46 33 44 32.2c-1-.5-1.4-2-1-4.6 0-1.6 0-1.7 1-2.2.8-.4 1.6-.6 2-.7h.2c.2 0 0 0 .2-.2h.2v-.2h.2c.4-.4 2.3-1.3 4-2 6.2-2.5 10.6-4.6 16-7.8l4.7-2.6c2-1 5.3-.2 7 1.5l.8.8-1 2.4c-4.3 11-9.6 35.6-10 47.2l-.4 3.6zM47.6 49s-.2 0 0-.2l.4-.2c.2 0 .3 0 .2.2 0 .2-.3.3-.5.3z"/></svg>