<svg xmlns="http://www.w3.org/2000/svg" viewBox="0 0 12.7 12.7"><path d="M1.95 11.53c-.43-.16-1.1-.77-1.35-1.25C.3 9.73.08 8.8.08 8.1c0-1.66.74-3.2 2.28-4.72.7-.7 1.84-1.62 2.5-2.03l.3-.17.23.33.23.33-.7.7c-.97.94-1.54 1.63-1.83 2.2-.26.5-.38 1.08-.3 1.4.07.28.42.58.96.85.67.32 1.05.67 1.3 1.2.2.37.22.52.22 1.1 0 .55-.03.7-.22 1.08-.22.46-.64.88-1.12 1.1-.38.2-1.54.23-2 .07zm7.1 0c-1-.37-1.7-1.4-1.9-2.83-.33-2.45 1.3-5 4.65-7.27.2-.13.37-.24.4-.24.04 0 .45.6.42.64-.02 0-.44.44-.93.95C10.36 4.13 9.85 5 9.85 5.83c0 .5.16.73.7 1 .93.43 1.5 1 1.7 1.7.12.46.04 1.47-.15 1.84-.17.36-.7.88-1.1 1.1-.35.17-1.53.22-1.94.06z"/></svg>