<svg xmlns="http://www.w3.org/2000/svg" viewBox="0 0 12.7 12.7"><path d="M6.225 12.616c-.17-.014-.29-.034-.781-.133-.44-.088-.736-.21-1.408-.576-.474-.26-.528-.296-.768-.525-.33-.314-.587-.634-.74-.92-.112-.211-.129-.255-.249-.644a1.975 1.975 0 0 1-.118-.58l-.051-.571c-.028-.311-.027-.323.028-.86.016-.148.025-.184.065-.252.064-.109.112-.143.2-.139.102.004.176.041.277.138.1.095.166.152.25.214.067.049.07.078.031.285-.039.212-.035.816.007 1.156.018.144.04.282.047.305l.09.285c.043.133.089.257.103.276.015.018.076.106.135.195.255.378.675.696 1.274.963.328.147.463.2.648.253a4.015 4.015 0 0 1 .262.084c.01.002.1.026.202.055.16.046.226.056.504.078.195.014.37.02.446.014.193-.016.54-.138.867-.304.245-.125.283-.15.54-.36a4.23 4.23 0 0 0 .37-.33c.05-.06.16-.178.242-.264.343-.363.424-.46.552-.665.07-.114.134-.22.14-.236.007-.017.063-.11.124-.209.232-.372.339-.572.407-.763l.067-.19.005-.305c.004-.274.008-.313.037-.38.048-.111.097-.156.17-.156.134 0 .168.015.31.133.203.168.292.262.31.325.022.08.018.3-.007.425-.07.332-.282.866-.486 1.216l-.247.43a4.033 4.033 0 0 1-.33.483 172.38 172.38 0 0 0-.486.62c-.075.103-.838.82-.938.882-.045.027-.152.095-.238.15-.155.099-.413.205-.788.327-.22.07-.681.101-1.075.07zm2.39-6.78a.541.541 0 0 1-.25-.23l-.084-.129-.018-.238c-.01-.131-.025-.617-.034-1.08a24.907 24.907 0 0 0-.061-1.46c-.073-1.022-.089-1.197-.132-1.502A2.29 2.29 0 0 1 8.01.57c.01-.242.02-.34.035-.355.01-.01.02-.025.02-.033 0-.019.101-.044.178-.044.109 0 .22.038.334.113.153.102.227.165.245.211.028.072.135 1.028.158 1.404.028.469.05.942.06 1.318.02.699.053 1.628.061 1.689a.997.997 0 0 0 .047.168c.036.097.037.108.023.272-.012.147-.02.183-.063.267-.05.097-.139.202-.172.202-.01 0-.05.017-.088.038a.273.273 0 0 1-.232.017zM5.77 5.405a.741.741 0 0 1-.175-.198 1.036 1.036 0 0 1-.046-.156c-.025-.108-.03-.208-.038-.757a48.72 48.72 0 0 0-.09-2.338 58.493 58.493 0 0 0-.068-.652L5.31.897l.033-.143c.03-.128.038-.146.079-.171.125-.076.356.015.574.227.16.156.162.16.201.334.035.153.037.19.037.595 0 .305.01.586.036.953.02.287.04.649.045.804l.025.812c.017.553.018.55-.046.877-.02.102-.083.152-.263.208-.181.056-.193.057-.26.011z"/></svg>