<svg xmlns="http://www.w3.org/2000/svg" width="48" height="48" viewBox="0 0 12.7 12.7"><g transform="translate(0 -284.3)"><path d="M5.84 294.433c-1.14-.104-2.392-.607-3.416-1.373-.372-.278-.89-.734-1.165-1.027-.45-.474-.93-1.075-1.08-1.35l-.07-.125.16-.216c.71-.967 1.88-2.036 2.89-2.647 1.33-.81 2.64-1.116 3.94-.917.63.097 1.12.262 1.82.606.54.27.65.332 1.01.585.91.64 1.89 1.57 2.49 2.39.19.26.2.2-.1.62-.42.58-1.15 1.35-1.73 1.81-1.18.94-2.438 1.49-3.718 1.62-.29.03-.8.03-1.055.01zm1.517-.82c1.14-.238 2.194-.818 3.27-1.8.345-.314 1.067-1.13 1.067-1.204 0-.04-.474-.57-.798-.89-.626-.63-1.24-1.1-2.022-1.56-.41-.24-.792-.4-1.283-.53-.49-.14-.65-.16-1.05-.18-1.47-.08-3.1.67-4.61 2.13-.31.3-.72.74-.88.96-.03.04 0 .09.2.34.44.55 1.07 1.15 1.66 1.6.31.23 1.62.89 1.97.993.6.177.91.217 1.59.2.46-.006.62-.02.91-.08zM6 292.827c-.762-.136-1.442-.653-1.69-1.284-.14-.355-.16-.426-.192-.697-.08-.646.14-1.3.593-1.785.36-.37.75-.59 1.24-.69.57-.1 1.09 0 1.6.31.31.19.49.37.68.66.31.46.41.82.39 1.36-.02.39-.07.59-.22.91-.27.57-.83 1.03-1.44 1.18-.25.07-.72.09-.94.05z"/><rect width="13.821" height="1.251" x="-207.927" y="209.338" ry="0" transform="rotate(-45)"/></g></svg>