<svg xmlns="http://www.w3.org/2000/svg" version="1.0" viewBox="0 0 1024 1024"><path d="M164.5 125.1c-27.9 4.1-54.4 17.8-74.7 38.5-15.9 16.3-24.7 31-31.8 53-6.1 19.2-5.8 4.3-6.1 297.4l-.3 268.5 2.1 10c8 38 28.6 67.7 60.8 88 10.7 6.7 22.8 11.8 37.5 15.8l11.5 3.2h723l11.7-3.2c51.8-14 88.7-53.6 98.4-105.8 1.8-9.6 1.9-19 1.9-216 0-230.3.5-212.7-7.1-235.5-6.7-20.2-17.4-36.9-33.5-52.5-17.8-17.3-37.3-27.9-62.9-34.3l-10.5-2.6-150-.3-150.1-.4-62.4-62.4-62.5-62.5-144.5.1c-79.5.1-147.2.5-150.5 1zM483 280.5l62.5 62.5 165 .2 165 .3 6.7 3.2c11 5.2 18.2 14 21.3 25.9 1.4 5.4 1.5 27.9 1.3 205l-.3 199-3.8 7.6c-4.3 8.8-10.2 14.6-18.7 18.7l-5.5 2.6h-703l-5.5-2.6c-8.5-4.1-14.4-9.9-18.7-18.7l-3.8-7.6.3-264.1c.4-251.8.4-264.2 2.2-269.2 3.7-10.7 11.3-18.6 21.8-22.9l5.7-2.4h245l62.5 62.5z"/></svg>