<svg xmlns="http://www.w3.org/2000/svg" viewBox="0 0 48 48"><path d="M13.892 23.898c0 5.64 4.57 10.21 10.21 10.21 5.64 0 10.21-4.57 10.21-10.21 0-5.64-4.57-10.21-10.21-10.21-5.64 0-10.21 4.57-10.21 10.21zM24.102 10.288c.747 0 1.36-.613 1.36-1.36v-5.45c0-.746-.613-1.36-1.36-1.36-.747 0-1.36.614-1.36 1.36v5.446c0 .75.613 1.364 1.36 1.364zM24.102 37.513c-.747 0-1.36.613-1.36 1.36v5.445c0 .746.613 1.36 1.36 1.36.747 0 1.36-.614 1.36-1.36v-5.445c0-.75-.613-1.36-1.36-1.36zM44.52 22.538h-5.444c-.746 0-1.36.613-1.36 1.36 0 .747.614 1.36 1.36 1.36h5.445c.748 0 1.362-.613 1.362-1.36 0-.747-.614-1.36-1.36-1.36zM10.492 23.898c0-.747-.614-1.36-1.36-1.36h-5.45c-.746 0-1.36.613-1.36 1.36 0 .747.614 1.36 1.36 1.36h5.445c.75 0 1.365-.613 1.365-1.36zM12.532 14.302c.27.27.613.41.95.41.34 0 .68-.14.952-.41.547-.547.547-1.36 0-1.907l-3.88-3.88c-.547-.547-1.36-.547-1.907 0-.547.546-.547 1.36 0 1.906zM35.672 33.495c-.547-.547-1.36-.547-1.907 0-.547.546-.547 1.36 0 1.906l3.88 3.882c.27.27.614.41.95.41.34 0 .682-.14.953-.41.546-.547.546-1.36 0-1.907zM34.72 14.644c.343 0 .68-.138.952-.41l3.88-3.88c.547-.546.547-1.36 0-1.906-.547-.547-1.36-.547-1.907 0l-3.947 3.88c-.546.547-.546 1.36 0 1.907.27.27.614.41 1.023.41zM12.532 33.495l-3.88 3.88c-.547.547-.547 1.36 0 1.907.27.27.613.41.95.41.34 0 .68-.14.952-.41l3.88-3.88c.547-.547.547-1.36 0-1.907-.475-.476-1.36-.476-1.902 0z"/></svg>